<svg xmlns="http://www.w3.org/2000/svg" width="56" height="56" xmlns:v="https://vecta.io/nano"><path d="M42.37 35.276c-.54 1.223-1.176 2.348-1.915 3.383-1.007 1.41-1.83 2.387-2.467 2.93-.985.9-2.04 1.346-3.17 1.372-.81 0-1.8-.227-2.928-.687s-2.193-.685-3.153-.685c-1.007 0-2.087.227-3.242.685s-2.09.7-2.8.724c-1.084.045-2.164-.423-3.242-1.41-.688-.6-1.55-1.6-2.58-3.033-1.106-1.53-2.016-3.303-2.728-5.325-.763-2.184-1.146-4.3-1.146-6.347 0-2.346.516-4.37 1.55-6.064.812-1.362 1.892-2.436 3.244-3.224a8.84 8.84 0 0 1 4.385-1.216c.86 0 1.99.262 3.392.776s2.297.778 2.7.778c.294 0 1.292-.306 2.983-.916 1.6-.566 2.95-.8 4.055-.708 2.996.238 5.248 1.398 6.745 3.5-2.68 1.596-4.006 3.83-3.98 6.698.024 2.233.85 4.092 2.47 5.567.734.685 1.554 1.214 2.467 1.6l-.63 1.622zM35.5 8.7c0 1.75-.65 3.385-1.948 4.897-1.565 1.798-3.46 2.838-5.512 2.674-.026-.2-.04-.43-.04-.663 0-1.68.744-3.48 2.066-4.95.66-.744 1.5-1.364 2.517-1.857 1.016-.486 1.976-.755 2.88-.802a6.25 6.25 0 0 1 .037.7h0z" fill="#fff"/></svg>